<?xml version="1.0" encoding="UTF-8" standalone="no"?>
<svg
   xmlns:dc="http://purl.org/dc/elements/1.1/"
   xmlns:cc="http://creativecommons.org/ns#"
   xmlns:rdf="http://www.w3.org/1999/02/22-rdf-syntax-ns#"
   xmlns:svg="http://www.w3.org/2000/svg"
   xmlns="http://www.w3.org/2000/svg"
   xmlns:sodipodi="http://sodipodi.sourceforge.net/DTD/sodipodi-0.dtd"
   xmlns:inkscape="http://www.inkscape.org/namespaces/inkscape"
   width="300"
   height="520"
   id="svg2"
   version="1.1"
   inkscape:version="0.48.2 r9819"
   sodipodi:docname="Elephant#4.svg">
  <metadata
     id="metadata46">
    <rdf:RDF>
      <cc:Work
         rdf:about="">
        <dc:format>image/svg+xml</dc:format>
        <dc:type
           rdf:resource="http://purl.org/dc/dcmitype/StillImage" />
      </cc:Work>
    </rdf:RDF>
  </metadata>
  <defs
     id="defs44" />
  <sodipodi:namedview
     pagecolor="#ffffff"
     bordercolor="#666666"
     borderopacity="1"
     objecttolerance="10"
     gridtolerance="10"
     guidetolerance="10"
     inkscape:pageopacity="0"
     inkscape:pageshadow="2"
     inkscape:window-width="951"
     inkscape:window-height="480"
     id="namedview42"
     showgrid="false"
     inkscape:zoom="1.0090435"
     inkscape:cx="10.523499"
     inkscape:cy="128.8194"
     inkscape:window-x="0"
     inkscape:window-y="0"
     inkscape:window-maximized="0"
     inkscape:current-layer="svg2" />
  <title
     id="title4">Elephant top view</title>
  <g
     id="g6"
     transform="translate(19.269847,89.281305)">
    <title
       id="title8">Layer 1</title>
    <path
       d="m 141.73802,375.61121 c -0.001,9.11663 2.31185,26.31939 -2.41693,18.31939 -4.72877,-8 -7.65652,-8.20276 -7.65526,-18.31939 -0.001,-10.11664 -8.0735,-16.8194 6.15526,-17.3194 14.22876,-0.5 3.9182,8.20276 3.91693,17.3194 z"
       stroke-miterlimit="4"
       id="svg_4"
       inkscape:connector-curvature="0"
       style="fill:#939dac;fill-rule:nonzero;stroke:#000000;stroke-linecap:round;stroke-linejoin:round;stroke-miterlimit:4" />
    <ellipse
       cx="228.23204"
       cy="57.694538"
       id="svg_33"
       rx="22"
       ry="0"
       sodipodi:cx="228.23204"
       sodipodi:cy="57.694538"
       sodipodi:rx="22"
       sodipodi:ry="0"
       style="fill:none;stroke:#000000;stroke-width:4;stroke-linecap:round" />
    <path
       d="m 273.73932,229.86121 c 0.0231,73.20968 -63.12788,132.56939 -141.03674,132.56939 -77.908879,0 -141.059951,-59.35971 -141.036739,-132.56939 -0.023212,-73.20966 63.12786,-132.569393 141.036739,-132.569393 77.90886,0 141.05984,59.359733 141.03674,132.569393 z"
       stroke-miterlimit="4"
       id="svg_68"
       inkscape:connector-curvature="0"
       style="fill:#939dac;fill-rule:nonzero;stroke:#000000;stroke-width:4;stroke-linecap:round;stroke-linejoin:round;stroke-miterlimit:4" />
    <path
       d="m 219.74609,92.861221 c 0.0142,47.806789 -38.73681,86.569399 -86.54351,86.569399 -47.806736,0 -86.557739,-38.76261 -86.543461,-86.569399 C 46.644841,45.05442 62.736512,6.29181 133.20258,6.29181 c 71.8797,0 86.55773,38.76261 86.54351,86.569411 z"
       stroke-miterlimit="4"
       id="svg_69"
       inkscape:connector-curvature="0"
       style="fill:#939dac;fill-rule:nonzero;stroke:#000000;stroke-width:4;stroke-linecap:round;stroke-linejoin:round;stroke-miterlimit:4" />
    <path
       d="M -16.94244,96.366737 C -7.98975,125.3058 19.12067,144.16702 43.603821,138.48998 68.087013,132.81293 80.667542,104.74831 71.700257,75.812637 62.747533,46.873569 41.719361,47.655628 17.236211,53.332679 c -24.48319,5.677059 -43.145969,14.098373 -34.17865,43.034058 z"
       stroke-miterlimit="4"
       transform="matrix(0.93110407,0.36475363,-0.36475363,0.93110407,36.503806,-3.5623821)"
       id="svg_70"
       inkscape:connector-curvature="0"
       style="fill:#939dac;fill-rule:nonzero;stroke:#000000;stroke-width:4;stroke-linecap:round;stroke-linejoin:round;stroke-miterlimit:4" />
    <path
       d="m 278.7984,93.668297 c -8.9527,28.384473 -36.06311,46.884243 -60.54626,41.315983 -24.48316,-5.56825 -37.06372,-33.09502 -28.09644,-61.476169 8.95276,-28.38446 29.9809,-27.61739 54.46405,-22.049141 24.48322,5.568272 43.14594,13.828194 34.17865,42.209328 z"
       stroke-miterlimit="4"
       transform="matrix(0.91768358,-0.39731203,0.39731203,0.91768358,-17.347843,100.62805)"
       id="svg_71"
       inkscape:connector-curvature="0"
       style="fill:#939dac;fill-rule:nonzero;stroke:#000000;stroke-width:4;stroke-linecap:round;stroke-linejoin:round;stroke-miterlimit:4" />
    <path
       d="m 187.79034,-20.158079 c 6.51972,5.207529 6.05255,33.516659 2.18653,38.212809 -3.86603,4.696161 -26.85627,-23.58252 -22.92694,-32.28943 4.13403,-9.160239 14.60668,-10.82261 20.74041,-5.923379 z"
       stroke-miterlimit="4"
       transform="matrix(-0.81569442,-0.57848303,0.57848303,-0.81569442,327.52222,100.07149)"
       id="svg_72"
       inkscape:connector-curvature="0"
       style="fill:#ffffff;fill-rule:evenodd;stroke:#000000;stroke-width:4;stroke-linejoin:round;stroke-miterlimit:4" />
    <path
       d="m 128.99927,50.694527 c 0.003,13.347328 -9.24866,24.169571 -20.66278,24.169571 -11.414142,0 -20.666179,-10.822243 -20.662776,-24.169571 -0.0034,-13.347294 9.248634,-24.169497 20.662776,-24.169497 11.41412,0 20.66616,10.822203 20.66278,24.169497 z"
       stroke-miterlimit="4"
       id="svg_73"
       inkscape:connector-curvature="0"
       style="fill:#ffffff;fill-rule:nonzero;stroke:#000000;stroke-width:4;stroke-linecap:round;stroke-linejoin:round;stroke-miterlimit:4" />
    <path
       d="m 210.74609,138.36122 c -0.0139,14.42621 -28.84161,63.0694 -75.54351,63.0694 -46.701939,0 -75.529549,-43.64319 -80.543461,-62.0694 -5.01392,-18.42621 34.841522,41.93059 81.543461,41.93059 46.7019,0 74.55743,-57.3568 74.54351,-42.93059 z"
       stroke-miterlimit="4"
       id="svg_74"
       inkscape:connector-curvature="0"
       style="fill:#000000;fill-opacity:0.31372501;fill-rule:nonzero;stroke-width:4;stroke-linecap:round;stroke-linejoin:round;stroke-miterlimit:4" />
    <path
       d="m 178.73144,50.694527 c 0.003,13.347328 -9.24859,24.169571 -20.66278,24.169571 -11.41412,0 -20.66616,-10.822243 -20.66278,-24.169571 -0.003,-13.347294 9.24866,-24.169497 20.66278,-24.169497 11.41419,0 20.66619,10.822203 20.66278,24.169497 z"
       stroke-miterlimit="4"
       id="svg_75"
       inkscape:connector-curvature="0"
       style="fill:#ffffff;fill-rule:nonzero;stroke:#000000;stroke-width:4;stroke-linecap:round;stroke-linejoin:round;stroke-miterlimit:4" />
    <path
       d="m 163.58679,42.19453 c 0.001,4.172981 -3.38128,7.556511 -7.55426,7.556511 -4.17303,0 -7.55548,-3.38353 -7.55426,-7.556511 -0.001,-4.172989 3.38123,-7.556499 7.55426,-7.556499 4.17298,0 7.55548,3.383511 7.55426,7.556499 z"
       stroke-miterlimit="4"
       id="svg_76"
       inkscape:connector-curvature="0"
       style="fill:#000000;fill-rule:nonzero;stroke-width:47.66669083;stroke-linecap:round;stroke-linejoin:round;stroke-miterlimit:4" />
    <path
       d="m 116.5564,41.19453 c 0.001,4.172981 -3.38123,7.556511 -7.5542,7.556511 -4.17301,0 -7.55554,-3.38353 -7.55426,-7.556511 -0.001,-4.172989 3.38125,-7.556499 7.55426,-7.556499 4.17297,0 7.55548,3.383511 7.5542,7.556499 z"
       stroke-miterlimit="4"
       id="svg_77"
       inkscape:connector-curvature="0"
       style="fill:#000000;fill-rule:nonzero;stroke-width:47.66669083;stroke-linecap:round;stroke-linejoin:round;stroke-miterlimit:4" />
    <path
       d="m 149.3432,-6.83113 c 14.5,-14.499999 31,-0.5 31,-0.5"
       stroke-miterlimit="4"
       transform="matrix(-0.99909218,0.04260061,-0.04260061,-0.99909218,298.11973,-26.591862)"
       id="svg_80"
       inkscape:connector-curvature="0"
       style="fill:none;stroke:#000000;stroke-width:4;stroke-linecap:round;stroke-miterlimit:4" />
    <path
       d="M 78.781471,-19.658079 C 72.261787,-14.45055 72.72895,13.85858 76.594948,18.55473 80.460983,23.250891 103.45124,-5.02779 99.521851,-13.7347 95.387917,-22.894939 84.915207,-24.55731 78.781472,-19.658079 z"
       stroke-miterlimit="4"
       transform="matrix(-0.77487988,0.63210851,-0.63210851,-0.77487988,153.14657,-57.81945)"
       id="svg_83"
       inkscape:connector-curvature="0"
       style="fill:#ffffff;fill-rule:evenodd;stroke:#000000;stroke-width:4;stroke-linejoin:round;stroke-miterlimit:4" />
    <path
       d="m 151.78711,12.816354 -48.38481,1.42198 c -25.601962,-43.448859 -2.59973,-78.906112 -3.964862,-79.627822 -1.365143,-0.721703 54.608182,-2.937317 54.566482,1.307121 -0.0417,4.244438 20.01416,36.460955 -2.21681,76.898721 z"
       stroke-miterlimit="4"
       transform="matrix(-0.99994852,0.01014647,-0.01014647,-0.99994852,259.08632,-53.689234)"
       id="svg_78"
       inkscape:connector-curvature="0"
       style="fill:#939dac;fill-rule:evenodd;stroke-width:5;stroke-linecap:round;stroke-miterlimit:4" />
    <path
       d="m 154.18994,-68.787918 c 0,0 23.5267,52.845653 -4.90532,76.75055 m -39.43249,1.334707 c -32.651996,-19.96097 -7.09864,-75.749914 -12.482562,-79.417692"
       stroke-miterlimit="4"
       transform="matrix(-0.99999998,2.066613e-4,-2.066613e-4,-0.99999998,260.4774,-59.517497)"
       id="svg_79"
       inkscape:connector-curvature="0"
       style="fill:none;stroke:#000000;stroke-width:4;stroke-linecap:round;stroke-miterlimit:4" />
    <path
       d="m 144.30701,-23.997787 c 9.85644,-7.885712 21.07245,-0.271919 21.07245,-0.271919"
       stroke-miterlimit="4"
       transform="matrix(-0.99771028,0.06763284,-0.06763284,-0.99771028,286.5396,-61.2731)"
       id="svg_81"
       inkscape:connector-curvature="0"
       style="fill:none;stroke:#000000;stroke-width:4;stroke-linecap:round;stroke-miterlimit:4" />
    <path
       d="m 141.62822,-44.164452 c 8.30865,-5.680954 17.76331,-0.195892 17.76331,-0.195892"
       stroke-miterlimit="4"
       transform="matrix(-0.99999354,-0.00359446,0.00359446,-0.99999354,283.4189,-90.396208)"
       id="svg_82"
       inkscape:connector-curvature="0"
       style="fill:none;stroke:#000000;stroke-width:4;stroke-linecap:round;stroke-miterlimit:4" />
    <path
       d="m 244.98883,81.848213 c 8.22052,1.607155 17.73871,6.22683 24.16858,17.409828 6.42987,11.183019 2.4621,21.583539 -2.41913,29.622449 -3.66034,-13.79744 -20.05169,-30.890813 -44.28229,-31.734387 -9.82635,-0.342079 -22.16101,2.691238 -17.92492,-1.450821 4.23608,-4.142075 13.4292,-10.791901 24.34588,-13.123489 5.64087,-1.204765 7.89136,-2.330734 16.11188,-0.723579 z"
       stroke-miterlimit="4"
       transform="matrix(-0.7416041,0.6708378,-0.6708378,-0.7416041,485.07239,23.089597)"
       id="svg_84"
       inkscape:connector-curvature="0"
       style="fill:#000000;fill-opacity:0.31372501;fill-rule:nonzero;stroke-width:4;stroke-linecap:round;stroke-linejoin:round;stroke-miterlimit:4" />
    <path
       d="M 24.08865,86.272438 C 14.027681,88.365387 8.51096,92.989807 1.38553,104.58052 -5.7399,116.17123 0.62131,126.92393 4.9227,135.30466 8.148251,120.92052 22.592529,103.1003 43.94492,102.22085 52.604031,101.8642 63.285279,106.36897 59.74057,100.70833 56.195862,95.047706 47.928501,85.926307 37.061069,85.058891 26.19363,84.191436 34.149627,84.179496 24.088649,86.272438 z"
       stroke-miterlimit="4"
       transform="matrix(-0.80247987,-0.5966792,0.5966792,-0.80247987,-12.751423,215.59192)"
       id="svg_85"
       inkscape:connector-curvature="0"
       style="fill:#000000;fill-opacity:0.31372501;fill-rule:nonzero;stroke-width:4;stroke-linecap:round;stroke-linejoin:round;stroke-miterlimit:4" />
    <ellipse
       cx="140.20258"
       cy="-69.055458"
       rx="8.833333"
       ry="6.416667"
       id="svg_88"
       sodipodi:cx="140.20258"
       sodipodi:cy="-69.055458"
       sodipodi:rx="8.833333"
       sodipodi:ry="6.416667"
       style="fill:#939dac;stroke:#000000;stroke-width:3;stroke-linecap:round;stroke-linejoin:round"
       d="m 149.03591,-69.055458 c 0,3.543827 -3.95482,6.416667 -8.83333,6.416667 -4.87852,0 -8.83334,-2.87284 -8.83334,-6.416667 0,-3.543827 3.95482,-6.416667 8.83334,-6.416667 4.87851,0 8.83333,2.87284 8.83333,6.416667 z" />
    <ellipse
       cx="121.06538"
       cy="-68.888794"
       rx="8.999999"
       ry="6.083333"
       id="svg_89"
       sodipodi:cx="121.06538"
       sodipodi:cy="-68.888794"
       sodipodi:rx="8.999999"
       sodipodi:ry="6.083333"
       style="fill:#939dac;stroke:#000000;stroke-width:3;stroke-linecap:round;stroke-linejoin:round"
       d="m 130.06538,-68.888794 c 0,3.359732 -4.02944,6.083333 -9,6.083333 -4.97057,0 -9,-2.723601 -9,-6.083333 0,-3.359732 4.02943,-6.083333 9,-6.083333 4.97056,0 9,2.723601 9,6.083333 z" />
    <ellipse
       cx="121.73205"
       cy="-66.138794"
       rx="8.666667"
       ry="3.333334"
       id="svg_90"
       sodipodi:cx="121.73205"
       sodipodi:cy="-66.138794"
       sodipodi:rx="8.666667"
       sodipodi:ry="3.333334"
       style="fill:#000000;fill-opacity:0.31372501;stroke-width:0;stroke-linecap:round;stroke-linejoin:round"
       d="m 130.39872,-66.138794 c 0,1.84095 -3.8802,3.333334 -8.66667,3.333334 -4.78647,0 -8.66667,-1.492384 -8.66667,-3.333334 0,-1.840949 3.8802,-3.333334 8.66667,-3.333334 4.78647,0 8.66667,1.492385 8.66667,3.333334 z" />
    <ellipse
       cx="139.20258"
       cy="-66.47213"
       rx="8.8333273"
       ry="2.666666"
       id="svg_91"
       sodipodi:cx="139.20258"
       sodipodi:cy="-66.47213"
       sodipodi:rx="8.8333273"
       sodipodi:ry="2.666666"
       style="fill:#000000;fill-opacity:0.31372501;stroke-width:0;stroke-linecap:round;stroke-linejoin:round"
       d="m 148.0359,-66.47213 c 0,1.472759 -3.95481,2.666666 -8.83332,2.666666 -4.87852,0 -8.83333,-1.193907 -8.83333,-2.666666 0,-1.472759 3.95481,-2.666666 8.83333,-2.666666 4.87851,0 8.83332,1.193907 8.83332,2.666666 z" />
    <path
       id="svg_22"
       d="m 150.00987,-0.83113 c 14.5,-14.499999 31,-0.5 31,-0.5"
       stroke-miterlimit="4"
       transform="matrix(-0.99909218,0.04260061,-0.04260061,-0.99909218,299.70807,-14.62571)"
       inkscape:connector-curvature="0"
       style="fill:none;stroke:#000000;stroke-width:4;stroke-linecap:round;stroke-miterlimit:4" />
    <path
       transform="matrix(0.98682766,0.16177503,-0.16177503,0.98682766,68.091705,-18.540662)"
       d="m 143.89871,401.36121 c 0,1.36364 0.39052,1.76306 1.33333,2.72726 0.94281,0.96423 1.72386,1.76306 2.66667,2.72729 0.94281,0.96421 1.33333,2.72727 1.33333,4.09089 0,1.36364 1.33334,1.36364 1.33334,2.72729 l 0,1.36362 1.33333,0 0,1.36365"
       id="svg_28"
       stroke-linejoin="null"
       inkscape:connector-curvature="0"
       style="fill:none;stroke:#000000;stroke-width:3;stroke-linecap:round;stroke-dasharray:none" />
    <path
       id="svg_26"
       d="m 124.11951,384.76038 c 14.72245,-11.54212 37.69949,-2.56696 37.56135,-0.18143"
       stroke-miterlimit="4"
       transform="matrix(-0.04535298,-0.99897102,0.99897102,-0.04535298,-232.1066,541.95391)"
       inkscape:connector-curvature="0"
       style="fill:none;stroke:#000000;stroke-width:4;stroke-linecap:round;stroke-miterlimit:4" />
    <path
       id="svg_27"
       d="m 141.9996,406.89331 c 14.5,-14.5 41.25934,-5.47449 41.25934,-5.47449"
       stroke-miterlimit="4"
       transform="matrix(-0.20804402,-0.97811946,0.97811946,-0.20804402,-222.41375,625.45443)"
       inkscape:connector-curvature="0"
       style="fill:none;stroke:#000000;stroke-width:4;stroke-linecap:round;stroke-miterlimit:4" />
    <path
       transform="matrix(0.98312051,-0.1829592,0.1829592,0.98312051,-72.055992,34.596908)"
       id="svg_31"
       d="m 147.47238,398.8363 c 0,1.63178 0.3905,2.10971 1.33332,3.26352 0.94281,1.15381 1.72387,2.10971 2.66668,3.26355 0.94281,1.15378 1.33332,3.26349 1.33332,4.89524 0,1.63177 1.33337,1.63177 1.33337,3.26355 l 0,1.63174 1.33331,0 0,1.63178"
       stroke-linejoin="null"
       inkscape:connector-curvature="0"
       style="fill:none;stroke:#000000;stroke-width:3;stroke-linecap:round;stroke-dasharray:none" />
    <path
       transform="matrix(0.8892878,-0.45734802,0.45734802,0.8892878,-167.9243,116.03334)"
       id="svg_32"
       d="m 151.70258,397.36121 c 0,1.36364 0.3905,1.76306 1.33331,2.72726 0.94281,0.96423 1.72388,1.76306 2.66669,2.72729 0.94281,0.96421 1.33331,2.72727 1.33331,4.09089 0,1.36364 1.33337,1.36364 1.33337,2.72729 l 0,1.36362 1.33332,0 0,1.36365"
       stroke-linejoin="null"
       inkscape:connector-curvature="0"
       style="fill:none;stroke:#000000;stroke-width:3;stroke-linecap:round;stroke-dasharray:none" />
    <path
       transform="matrix(0.79669118,0.6043866,-0.6043866,0.79669118,275.5103,-3.6649034)"
       d="m 139.20258,400.86121 c 0,1.36364 0.3905,1.76306 1.33331,2.72726 0.94281,0.96423 1.72388,1.76306 2.66669,2.72729 0.94281,0.96421 1.33331,2.72727 1.33331,4.09089 0,1.36364 1.33337,1.36364 1.33337,2.72729 l 0,1.36362 1.33332,0 -2.08242,-0.7959"
       stroke-linejoin="null"
       id="svg_1"
       inkscape:connector-curvature="0"
       style="fill:none;stroke:#000000;stroke-width:3;stroke-linecap:round;stroke-dasharray:none" />
    <path
       transform="matrix(0.4930126,-0.87002217,0.87002217,0.4930126,-268.83933,336.37727)"
       d="m 150.20258,391.36121 c 0,1.36364 0.3905,1.76306 1.33331,2.72726 0.94281,0.96423 1.72388,1.76306 2.66669,2.72729 0.94281,0.96421 1.33331,2.72727 1.33331,4.09089 0,1.36364 1.33337,1.36364 1.33337,2.72729 l 0,1.36362 1.33332,0 0,1.36365"
       stroke-linejoin="null"
       id="svg_2"
       inkscape:connector-curvature="0"
       style="fill:none;stroke:#000000;stroke-width:3;stroke-linecap:round;stroke-dasharray:none" />
  </g>
</svg>
