<?xml version="1.0" encoding="UTF-8" standalone="no"?>
<svg
   xmlns:dc="http://purl.org/dc/elements/1.1/"
   xmlns:cc="http://creativecommons.org/ns#"
   xmlns:rdf="http://www.w3.org/1999/02/22-rdf-syntax-ns#"
   xmlns:svg="http://www.w3.org/2000/svg"
   xmlns="http://www.w3.org/2000/svg"
   xmlns:sodipodi="http://sodipodi.sourceforge.net/DTD/sodipodi-0.dtd"
   xmlns:inkscape="http://www.inkscape.org/namespaces/inkscape"
   width="300"
   height="520"
   id="svg2"
   version="1.1"
   inkscape:version="0.48.2 r9819"
   sodipodi:docname="Elephant#1.svg">
  <metadata
     id="metadata47">
    <rdf:RDF>
      <cc:Work
         rdf:about="">
        <dc:format>image/svg+xml</dc:format>
        <dc:type
           rdf:resource="http://purl.org/dc/dcmitype/StillImage" />
      </cc:Work>
    </rdf:RDF>
  </metadata>
  <defs
     id="defs45" />
  <sodipodi:namedview
     pagecolor="#ffffff"
     bordercolor="#666666"
     borderopacity="1"
     objecttolerance="10"
     gridtolerance="10"
     guidetolerance="10"
     inkscape:pageopacity="0"
     inkscape:pageshadow="2"
     inkscape:window-width="1192"
     inkscape:window-height="816"
     id="namedview43"
     showgrid="false"
     inkscape:zoom="0.99666667"
     inkscape:cx="150"
     inkscape:cy="244.39799"
     inkscape:window-x="0"
     inkscape:window-y="0"
     inkscape:window-maximized="0"
     inkscape:current-layer="svg2" />
  <title
     id="title4">Elephant top view</title>
  <g
     id="g6"
     transform="translate(19.287395,96.614639)">
    <title
       id="title8">Layer 1</title>
    <path
       id="svg_4"
       stroke-miterlimit="4"
       d="m 141.73802,375.61121 c -0.001,9.11663 2.31185,26.31939 -2.41693,18.31939 -4.72877,-8 -7.65652,-8.20276 -7.65526,-18.31939 -0.001,-10.11664 -8.0735,-16.8194 6.15526,-17.3194 14.22876,-0.5 3.9182,8.20276 3.91693,17.3194 z"
       inkscape:connector-curvature="0"
       style="fill:#939dac;fill-rule:nonzero;stroke:#000000;stroke-linecap:round;stroke-linejoin:round;stroke-miterlimit:4" />
    <ellipse
       rx="22"
       id="svg_33"
       cy="57.694538"
       cx="228.23204"
       ry="0"
       sodipodi:cx="228.23204"
       sodipodi:cy="57.694538"
       sodipodi:rx="22"
       sodipodi:ry="0"
       style="fill:none;stroke:#000000;stroke-width:4;stroke-linecap:round" />
    <path
       id="svg_68"
       stroke-miterlimit="4"
       d="m 273.73932,229.86121 c 0.0231,73.20968 -63.12788,132.56939 -141.03674,132.56939 -77.908879,0 -141.05995,-59.35971 -141.03674,-132.56939 -0.023211,-73.20966 63.127861,-132.569393 141.03674,-132.569393 77.90886,0 141.05984,59.359733 141.03674,132.569393 z"
       inkscape:connector-curvature="0"
       style="fill:#939dac;fill-rule:nonzero;stroke:#000000;stroke-width:4;stroke-linecap:round;stroke-linejoin:round;stroke-miterlimit:4" />
    <path
       id="svg_69"
       stroke-miterlimit="4"
       d="m 219.74609,92.861221 c 0.0142,47.806789 -38.73681,86.569399 -86.54351,86.569399 -47.806736,0 -86.557739,-38.76261 -86.543461,-86.569399 C 46.644841,45.05442 62.736512,6.29181 133.20258,6.29181 c 71.8797,0 86.55773,38.76261 86.54351,86.569411 z"
       inkscape:connector-curvature="0"
       style="fill:#939dac;fill-rule:nonzero;stroke:#000000;stroke-width:4;stroke-linecap:round;stroke-linejoin:round;stroke-miterlimit:4" />
    <path
       id="svg_70"
       transform="matrix(0.82085056,0.57114303,-0.57114303,0.82085056,59.131735,1.1818147)"
       stroke-miterlimit="4"
       d="M -16.94244,96.366737 C -7.98975,125.3058 19.12067,144.16702 43.603821,138.48998 68.087013,132.81293 80.667542,104.74831 71.700257,75.812637 62.747533,46.873569 41.719361,47.655628 17.236211,53.332679 c -24.48319,5.677059 -43.145969,14.098373 -34.17865,43.034058 z"
       inkscape:connector-curvature="0"
       style="fill:#939dac;fill-rule:nonzero;stroke:#000000;stroke-width:4;stroke-linecap:round;stroke-linejoin:round;stroke-miterlimit:4" />
    <path
       id="svg_71"
       transform="matrix(0.79093676,-0.6118979,0.6118979,0.79093676,-7.4475565,162.56199)"
       stroke-miterlimit="4"
       d="m 278.7984,93.668297 c -8.9527,28.384473 -36.06311,46.884243 -60.54626,41.315983 -24.48316,-5.56825 -37.06372,-33.09502 -28.09644,-61.476169 8.95276,-28.38446 29.9809,-27.61739 54.46405,-22.049141 24.48322,5.568272 43.14594,13.828194 34.17865,42.209328 z"
       inkscape:connector-curvature="0"
       style="fill:#939dac;fill-rule:nonzero;stroke:#000000;stroke-width:4;stroke-linecap:round;stroke-linejoin:round;stroke-miterlimit:4" />
    <path
       id="svg_72"
       transform="matrix(-0.81569442,-0.57848303,0.57848303,-0.81569442,326.69462,105.80782)"
       stroke-miterlimit="4"
       d="m 188.29034,-17.158079 c 6.51972,5.207529 6.05255,33.516659 2.18653,38.212809 -3.86603,4.696161 -26.85627,-23.58252 -22.92694,-32.28943 4.13403,-9.160239 14.60668,-10.82261 20.74041,-5.923379 z"
       inkscape:connector-curvature="0"
       style="fill:#ffffff;fill-rule:evenodd;stroke:#000000;stroke-width:4;stroke-linejoin:round;stroke-miterlimit:4" />
    <path
       id="svg_73"
       stroke-miterlimit="4"
       d="m 128.99927,49.19453 c 0.004,12.51897 -10.14386,22.669567 -22.66278,22.669567 -12.518947,0 -22.666507,-10.150597 -22.662776,-22.669567 -0.0037,-12.51894 10.143829,-22.6695 22.662776,-22.6695 12.51892,0 22.6665,10.15056 22.66278,22.6695 z"
       inkscape:connector-curvature="0"
       style="fill:#ffffff;fill-rule:nonzero;stroke:#000000;stroke-width:4;stroke-linecap:round;stroke-linejoin:round;stroke-miterlimit:4" />
    <path
       id="svg_74"
       stroke-miterlimit="4"
       d="m 210.74609,138.36122 c -0.0139,14.42621 -28.84161,63.0694 -75.54351,63.0694 -46.701939,0 -75.529549,-43.64319 -80.543461,-62.0694 -5.01392,-18.42621 34.841522,41.93059 81.543461,41.93059 46.7019,0 74.55743,-57.3568 74.54351,-42.93059 z"
       inkscape:connector-curvature="0"
       style="fill:#000000;fill-opacity:0.31372501;fill-rule:nonzero;stroke-width:4;stroke-linecap:round;stroke-linejoin:round;stroke-miterlimit:4" />
    <path
       id="svg_75"
       stroke-miterlimit="4"
       d="m 182.73144,49.19453 c 0.004,12.51897 -10.14379,22.669567 -22.66278,22.669567 -12.51892,0 -22.6665,-10.150597 -22.66278,-22.669567 -0.004,-12.51894 10.14386,-22.6695 22.66278,-22.6695 12.51899,0 22.66651,10.15056 22.66278,22.6695 z"
       inkscape:connector-curvature="0"
       style="fill:#ffffff;fill-rule:nonzero;stroke:#000000;stroke-width:4;stroke-linecap:round;stroke-linejoin:round;stroke-miterlimit:4" />
    <path
       id="svg_76"
       stroke-miterlimit="4"
       d="m 163.58679,42.19453 c 0.001,4.172981 -3.38128,7.556511 -7.55426,7.556511 -4.17303,0 -7.55548,-3.38353 -7.55426,-7.556511 -0.001,-4.172989 3.38123,-7.556499 7.55426,-7.556499 4.17298,0 7.55548,3.383511 7.55426,7.556499 z"
       inkscape:connector-curvature="0"
       style="fill:#000000;fill-rule:nonzero;stroke-width:47.66669083;stroke-linecap:round;stroke-linejoin:round;stroke-miterlimit:4" />
    <path
       id="svg_77"
       stroke-miterlimit="4"
       d="m 116.5564,41.19453 c 0.001,4.172981 -3.38123,7.556511 -7.5542,7.556511 -4.17301,0 -7.55554,-3.38353 -7.55426,-7.556511 -0.001,-4.172989 3.38125,-7.556499 7.55426,-7.556499 4.17297,0 7.55548,3.383511 7.5542,7.556499 z"
       inkscape:connector-curvature="0"
       style="fill:#000000;fill-rule:nonzero;stroke-width:47.66669083;stroke-linecap:round;stroke-linejoin:round;stroke-miterlimit:4" />
    <path
       id="svg_80"
       transform="matrix(-0.99909218,0.04260061,-0.04260061,-0.99909218,298.11973,-26.591862)"
       stroke-miterlimit="4"
       d="m 149.3432,-6.83113 c 14.5,-14.499999 31,-0.5 31,-0.5"
       inkscape:connector-curvature="0"
       style="fill:none;stroke:#000000;stroke-width:4;stroke-linecap:round;stroke-miterlimit:4" />
    <path
       id="svg_78"
       transform="matrix(-0.99994852,0.01014647,-0.01014647,-0.99994852,262.0764,-70.814373)"
       stroke-miterlimit="4"
       d="m 154.05835,11.13016 -45.68097,0 c 7.66174,-61.278979 -7.36267,-91.745082 -7.36267,-91.745082 0,0 60.40625,0 60.40625,0 0,0 -19.01904,30.627361 -7.36261,91.745082 z"
       inkscape:connector-curvature="0"
       style="fill:#939dac;fill-rule:evenodd;stroke-width:4;stroke-linecap:round;stroke-miterlimit:4" />
    <path
       id="svg_79"
       transform="matrix(-0.99999998,2.066613e-4,-2.066613e-4,-0.99999998,257.76033,-72.516167)"
       stroke-miterlimit="4"
       d="m 155.4057,-83.619766 c 0,0 -15.02441,32.171047 -7.36261,94.749996 m -45.68097,0 c 7.66174,-63.286049 -7.362669,-94.749996 -7.362669,-94.749996"
       inkscape:connector-curvature="0"
       style="fill:none;stroke:#000000;stroke-width:4;stroke-linecap:round;stroke-miterlimit:4" />
    <path
       id="svg_81"
       transform="matrix(-0.99771028,0.06763284,-0.06763284,-0.99771028,285.7731,-83.913806)"
       stroke-miterlimit="4"
       d="m 144.30701,-35.33112 c 9.85644,-7.885712 21.07245,-0.271919 21.07245,-0.271919"
       inkscape:connector-curvature="0"
       style="fill:none;stroke:#000000;stroke-width:4;stroke-linecap:round;stroke-miterlimit:4" />
    <path
       id="svg_82"
       transform="matrix(-0.99999354,-0.00359446,0.00359446,-0.99999354,282.14547,-123.73182)"
       stroke-miterlimit="4"
       d="m 140.96155,-60.83112 c 8.30865,-5.68095 17.7633,-0.195892 17.7633,-0.195892"
       inkscape:connector-curvature="0"
       style="fill:none;stroke:#000000;stroke-width:4;stroke-linecap:round;stroke-miterlimit:4" />
    <path
       id="svg_83"
       transform="matrix(-0.77487988,0.63210851,-0.63210851,-0.77487988,152.31985,-54.525022)"
       stroke-miterlimit="4"
       d="M 77.781471,-18.158079 C 71.261787,-12.95055 71.72895,15.35858 75.594948,20.05473 79.460983,24.750891 102.45124,-3.52779 98.521851,-12.2347 94.387917,-21.394939 83.915207,-23.05731 77.781472,-18.158079 z"
       inkscape:connector-curvature="0"
       style="fill:#ffffff;fill-rule:evenodd;stroke:#000000;stroke-width:4;stroke-linejoin:round;stroke-miterlimit:4" />
    <path
       id="svg_84"
       transform="matrix(-0.66975379,0.74258323,-0.74258323,-0.66975379,475.49647,-1.5340614)"
       stroke-miterlimit="4"
       d="m 244.98883,81.848213 c 8.22052,1.607155 17.73871,6.22683 24.16858,17.409828 6.42987,11.183019 2.4621,21.583539 -2.41913,29.622449 -3.66034,-13.79744 -20.05169,-30.890813 -44.28229,-31.734387 -9.82635,-0.342079 -22.16101,2.691238 -17.92492,-1.450821 4.23608,-4.142075 13.4292,-10.791901 24.34588,-13.123489 5.64087,-1.204765 7.89136,-2.330734 16.11188,-0.723579 z"
       inkscape:connector-curvature="0"
       style="fill:#000000;fill-opacity:0.31372501;fill-rule:nonzero;stroke-width:4;stroke-linecap:round;stroke-linejoin:round;stroke-miterlimit:4" />
    <path
       id="svg_85"
       transform="matrix(-0.62373044,-0.78163952,0.78163952,-0.62373044,-45.655641,195.83512)"
       stroke-miterlimit="4"
       d="M 19.08865,85.272438 C 9.027681,87.365387 3.51096,91.989807 -3.61447,103.58052 c -7.12543,11.59071 -0.76422,22.34341 3.53717,30.72414 3.22555,-14.38414 17.669829,-32.20436 39.02222,-33.08381 8.659111,-0.35665 19.340359,4.14812 15.79565,-1.512522 C 51.195862,94.047706 42.928501,84.926307 32.061069,84.058891 21.19363,83.191436 29.149629,83.179496 19.088649,85.272438 z"
       inkscape:connector-curvature="0"
       style="fill:#000000;fill-opacity:0.31372501;fill-rule:nonzero;stroke-width:4;stroke-linecap:round;stroke-linejoin:round;stroke-miterlimit:4" />
    <ellipse
       id="svg_86"
       ry="4.5"
       rx="11.333327"
       cy="-86.138794"
       cx="120.89871"
       sodipodi:cx="120.89871"
       sodipodi:cy="-86.138794"
       sodipodi:rx="11.333327"
       sodipodi:ry="4.5"
       style="fill:#000000;fill-opacity:0.31372501;stroke-width:0;stroke-linecap:round;stroke-linejoin:round"
       d="m 132.23204,-86.138794 c 0,2.485281 -5.0741,4.5 -11.33333,4.5 -6.25922,0 -11.33333,-2.014719 -11.33333,-4.5 0,-2.485281 5.07411,-4.5 11.33333,-4.5 6.25923,0 11.33333,2.014719 11.33333,4.5 z" />
    <ellipse
       id="svg_88"
       ry="6.333334"
       rx="11.166666"
       cy="-83.805458"
       cx="144.36925"
       sodipodi:cx="144.36925"
       sodipodi:cy="-83.805458"
       sodipodi:rx="11.166666"
       sodipodi:ry="6.333334"
       style="fill:#dbcbbc;stroke:#000000;stroke-width:3;stroke-linecap:round;stroke-linejoin:round"
       d="m 155.53591,-83.805458 c 0,3.497804 -4.99948,6.333334 -11.16666,6.333334 -6.16718,0 -11.16667,-2.83553 -11.16667,-6.333334 0,-3.497804 4.99949,-6.333334 11.16667,-6.333334 6.16718,0 11.16666,2.83553 11.16666,6.333334 z" />
    <ellipse
       id="svg_87"
       ry="3.2"
       rx="8.1333389"
       cy="-87.238785"
       cx="143.86926"
       sodipodi:cx="143.86926"
       sodipodi:cy="-87.238785"
       sodipodi:rx="8.1333389"
       sodipodi:ry="3.2"
       style="fill:#000000;fill-opacity:0.31372501;stroke-width:0;stroke-linecap:round;stroke-linejoin:round"
       d="m 152.0026,-87.238785 c 0,1.767311 -3.64142,3.2 -8.13334,3.2 -4.49192,0 -8.13334,-1.432689 -8.13334,-3.2 0,-1.767311 3.64142,-3.2 8.13334,-3.2 4.49192,0 8.13334,1.432689 8.13334,3.2 z" />
    <ellipse
       id="svg_3"
       ry="6.333334"
       rx="11.166666"
       cy="-83.638786"
       cx="120.26924"
       sodipodi:cx="120.26924"
       sodipodi:cy="-83.638786"
       sodipodi:rx="11.166666"
       sodipodi:ry="6.333334"
       style="fill:#dbcbbc;stroke:#000000;stroke-width:3;stroke-linecap:round;stroke-linejoin:round"
       d="m 131.43591,-83.638786 c 0,3.497803 -4.99949,6.333334 -11.16667,6.333334 -6.16718,0 -11.16666,-2.835531 -11.16666,-6.333334 0,-3.497804 4.99948,-6.333334 11.16666,-6.333334 6.16718,0 11.16667,2.83553 11.16667,6.333334 z" />
    <ellipse
       id="svg_90"
       ry="3.6333339"
       rx="8.5999994"
       cy="-87.738792"
       cx="120.49871"
       sodipodi:cx="120.49871"
       sodipodi:cy="-87.738792"
       sodipodi:rx="8.5999994"
       sodipodi:ry="3.6333339"
       style="fill:#000000;fill-opacity:0.31372501;stroke-width:0;stroke-linecap:round;stroke-linejoin:round"
       d="m 129.09871,-87.738792 c 0,2.006634 -3.85035,3.633334 -8.6,3.633334 -4.74965,0 -8.6,-1.6267 -8.6,-3.633334 0,-2.006635 3.85035,-3.633334 8.6,-3.633334 4.74965,0 8.6,1.626699 8.6,3.633334 z" />
    <path
       transform="matrix(-0.99909218,0.04260061,-0.04260061,-0.99909218,298.11973,-26.591862)"
       stroke-miterlimit="4"
       d="m 149.3432,-6.83113 c 14.5,-14.499999 31,-0.5 31,-0.5"
       id="svg_22"
       inkscape:connector-curvature="0"
       style="fill:none;stroke:#000000;stroke-width:4;stroke-linecap:round;stroke-miterlimit:4" />
    <path
       stroke-linejoin="null"
       id="svg_28"
       d="m 143.89871,401.36121 c 0,1.36364 0.39052,1.76306 1.33333,2.72726 0.94281,0.96423 1.72386,1.76306 2.66667,2.72729 0.94281,0.96421 1.33333,2.72727 1.33333,4.09089 0,1.36364 1.33334,1.36364 1.33334,2.72729 l 0,1.36362 1.33333,0 0,1.36365"
       transform="matrix(0.98682766,0.16177503,-0.16177503,0.98682766,68.091705,-18.540662)"
       inkscape:connector-curvature="0"
       style="fill:none;stroke:#000000;stroke-width:3;stroke-linecap:round;stroke-dasharray:none" />
    <path
       transform="matrix(-0.04535298,-0.99897102,0.99897102,-0.04535298,-232.1066,541.95391)"
       stroke-miterlimit="4"
       d="m 124.11951,384.76038 c 14.72245,-11.54212 37.69949,-2.56696 37.56135,-0.18143"
       id="svg_26"
       inkscape:connector-curvature="0"
       style="fill:none;stroke:#000000;stroke-width:4;stroke-linecap:round;stroke-miterlimit:4" />
    <path
       transform="matrix(-0.20804402,-0.97811946,0.97811946,-0.20804402,-222.41375,625.45443)"
       stroke-miterlimit="4"
       d="m 141.9996,406.89331 c 14.5,-14.5 41.25934,-5.47449 41.25934,-5.47449"
       id="svg_27"
       inkscape:connector-curvature="0"
       style="fill:none;stroke:#000000;stroke-width:4;stroke-linecap:round;stroke-miterlimit:4" />
    <path
       stroke-linejoin="null"
       d="m 147.47238,398.8363 c 0,1.63178 0.3905,2.10971 1.33332,3.26352 0.94281,1.15381 1.72387,2.10971 2.66668,3.26355 0.94281,1.15378 1.33332,3.26349 1.33332,4.89524 0,1.63177 1.33337,1.63177 1.33337,3.26355 l 0,1.63174 1.33331,0 0,1.63178"
       id="svg_31"
       transform="matrix(0.98312051,-0.1829592,0.1829592,0.98312051,-72.055992,34.596908)"
       inkscape:connector-curvature="0"
       style="fill:none;stroke:#000000;stroke-width:3;stroke-linecap:round;stroke-dasharray:none" />
    <path
       stroke-linejoin="null"
       d="m 151.70258,397.36121 c 0,1.36364 0.3905,1.76306 1.33331,2.72726 0.94281,0.96423 1.72388,1.76306 2.66669,2.72729 0.94281,0.96421 1.33331,2.72727 1.33331,4.09089 0,1.36364 1.33337,1.36364 1.33337,2.72729 l 0,1.36362 1.33332,0 0,1.36365"
       id="svg_32"
       transform="matrix(0.8892878,-0.45734802,0.45734802,0.8892878,-167.9243,116.03334)"
       inkscape:connector-curvature="0"
       style="fill:none;stroke:#000000;stroke-width:3;stroke-linecap:round;stroke-dasharray:none" />
    <path
       id="svg_1"
       stroke-linejoin="null"
       d="m 139.20258,400.86121 c 0,1.36364 0.3905,1.76306 1.33331,2.72726 0.94281,0.96423 1.72388,1.76306 2.66669,2.72729 0.94281,0.96421 1.33331,2.72727 1.33331,4.09089 0,1.36364 1.33337,1.36364 1.33337,2.72729 l 0,1.36362 1.33332,0 -2.08242,-0.7959"
       transform="matrix(0.79669118,0.6043866,-0.6043866,0.79669118,275.5103,-3.6649034)"
       inkscape:connector-curvature="0"
       style="fill:none;stroke:#000000;stroke-width:3;stroke-linecap:round;stroke-dasharray:none" />
    <path
       id="svg_2"
       stroke-linejoin="null"
       d="m 150.20258,391.36121 c 0,1.36364 0.3905,1.76306 1.33331,2.72726 0.94281,0.96423 1.72388,1.76306 2.66669,2.72729 0.94281,0.96421 1.33331,2.72727 1.33331,4.09089 0,1.36364 1.33337,1.36364 1.33337,2.72729 l 0,1.36362 1.33332,0 0,1.36365"
       transform="matrix(0.4930126,-0.87002217,0.87002217,0.4930126,-268.83933,336.37727)"
       inkscape:connector-curvature="0"
       style="fill:none;stroke:#000000;stroke-width:3;stroke-linecap:round;stroke-dasharray:none" />
  </g>
</svg>
