<?xml version="1.0" encoding="UTF-8" standalone="no"?>
<svg
   xmlns:dc="http://purl.org/dc/elements/1.1/"
   xmlns:cc="http://creativecommons.org/ns#"
   xmlns:rdf="http://www.w3.org/1999/02/22-rdf-syntax-ns#"
   xmlns:svg="http://www.w3.org/2000/svg"
   xmlns="http://www.w3.org/2000/svg"
   xmlns:sodipodi="http://sodipodi.sourceforge.net/DTD/sodipodi-0.dtd"
   xmlns:inkscape="http://www.inkscape.org/namespaces/inkscape"
   width="125"
   height="125"
   id="svg2"
   version="1.1"
   inkscape:version="0.48.2 r9819"
   sodipodi:docname="car.svg">
  <defs
     id="defs12" />
  <sodipodi:namedview
     pagecolor="#ffffff"
     bordercolor="#666666"
     borderopacity="1"
     objecttolerance="10"
     gridtolerance="10"
     guidetolerance="10"
     inkscape:pageopacity="0"
     inkscape:pageshadow="2"
     inkscape:window-width="1182"
     inkscape:window-height="635"
     id="namedview10"
     showgrid="false"
     fit-margin-top="0"
     fit-margin-left="0"
     fit-margin-right="0"
     fit-margin-bottom="0"
     inkscape:zoom="1.5017182"
     inkscape:cx="-80.802786"
     inkscape:cy="56.08271"
     inkscape:window-x="0"
     inkscape:window-y="0"
     inkscape:window-maximized="0"
     inkscape:current-layer="svg2" />
  <metadata
     id="metadata28">image/svg+xmlmotorbike accident compensationmotorbike accident compensation claim insurace motorcycle hit injured kill die<rdf:RDF>
  <cc:Work
     rdf:about="">
    <dc:format>image/svg+xml</dc:format>
    <dc:type
       rdf:resource="http://purl.org/dc/dcmitype/StillImage" />
  </cc:Work>
</rdf:RDF>
</metadata>
  <g
     id="g5"
     transform="matrix(1.0289414,0,0,1.0289414,-1.2463986,-6.4046186)">
    <title
       id="title7">Layer 1</title>
    <path
       d="m 35.982552,16.580818 c -7.607826,-8e-6 -11.647247,4.171665 -13.510384,9.033323 L 12.606819,51.129356 C 8.686142,51.632095 1.711323,56.238506 1.711342,64.956695 l 0,32.488312 9.627632,0 0,10.380413 c -3.1e-5,12.77752 18.1063,12.62703 18.1063,0 l 0,-10.380413 32.527916,0 32.527939,0 0,10.380413 c -3.1e-5,12.62703 18.066661,12.77752 18.066661,0 l 0,-10.380413 9.62763,0 0,-32.488312 c -3e-5,-8.718189 -6.93518,-13.3246 -10.85585,-13.827339 L 101.4346,25.614141 C 99.571443,20.752483 95.532045,16.58081 87.924226,16.580818 l -13.985825,0 -23.811554,0 -14.144295,0 z m -0.07924,9.310663 26.030266,0 0.03961,0 26.069901,0 c 3.26033,0.03036 4.654816,2.089813 5.586395,4.91287 l 7.448546,20.08728 -39.104842,0 -0.03961,0 -39.104836,0 7.44854,-20.08728 c 0.931572,-2.823057 2.365356,-4.882505 5.62603,-4.91287 z M 20.68927,60.63813 c 4.61335,0 8.359802,3.882431 8.359802,8.637138 0,4.755043 -3.746468,8.597519 -8.359802,8.597519 -4.612968,0 -8.359802,-3.842476 -8.359802,-8.597519 1.5e-5,-4.754707 3.746819,-8.637138 8.359802,-8.637138 z m 82.56786,0 c 4.61331,0 8.35981,3.882431 8.35978,8.637138 0,4.755043 -3.74646,8.597519 -8.35978,8.597519 -4.613011,0 -8.359806,-3.842476 -8.359806,-8.597519 -1.5e-5,-4.754707 3.746796,-8.637138 8.359806,-8.637138 z"
       id="path2301"
       inkscape:connector-curvature="0"
       style="fill:#000000;stroke:#ffffff" />
  </g>
</svg>
