<?xml version="1.0" encoding="UTF-8" standalone="no"?>
<!-- Created with Inkscape (http://www.inkscape.org/) -->

<svg
   xmlns:osb="http://www.openswatchbook.org/uri/2009/osb"
   xmlns:dc="http://purl.org/dc/elements/1.1/"
   xmlns:cc="http://creativecommons.org/ns#"
   xmlns:rdf="http://www.w3.org/1999/02/22-rdf-syntax-ns#"
   xmlns:svg="http://www.w3.org/2000/svg"
   xmlns="http://www.w3.org/2000/svg"
   xmlns:sodipodi="http://sodipodi.sourceforge.net/DTD/sodipodi-0.dtd"
   xmlns:inkscape="http://www.inkscape.org/namespaces/inkscape"
   id="svg2985"
   version="1.1"
   inkscape:version="0.48.2 r9819"
   width="125"
   height="125"
   xml:space="preserve"
   sodipodi:docname="helicopter.svg"><metadata
     id="metadata2991"><rdf:RDF><cc:Work
         rdf:about=""><dc:format>image/svg+xml</dc:format><dc:type
           rdf:resource="http://purl.org/dc/dcmitype/StillImage" /><dc:title /></cc:Work></rdf:RDF></metadata><defs
     id="defs2989"><linearGradient
       id="linearGradient3773"
       osb:paint="solid"><stop
         style="stop-color:#000000;stop-opacity:1;"
         offset="0"
         id="stop3775" /></linearGradient></defs><sodipodi:namedview
     pagecolor="#ffffff"
     bordercolor="#666666"
     borderopacity="1"
     objecttolerance="10"
     gridtolerance="10"
     guidetolerance="10"
     inkscape:pageopacity="0"
     inkscape:pageshadow="2"
     inkscape:window-width="1440"
     inkscape:window-height="807"
     id="namedview2987"
     showgrid="false"
     inkscape:zoom="3"
     inkscape:cx="64.769101"
     inkscape:cy="67.964611"
     inkscape:window-x="0"
     inkscape:window-y="0"
     inkscape:window-maximized="1"
     inkscape:current-layer="g2993" /><g
     id="g2993"
     inkscape:groupmode="layer"
     inkscape:label="heliport"
     transform="matrix(1.25,0,0,-1.25,0,125)"><path
       style="fill:#000000;fill-opacity:1;fill-rule:nonzero;stroke:none"
       d="M 13.625 30.875 C 6.0972683 30.883746 0.0090295 36.971769 0 44.5 C 0.0090295 51.97744 6.0972682 58.065436 13.625 58.0625 C 21.102251 58.065375 27.190186 51.97744 27.1875 44.5 C 27.190125 36.971769 21.102251 30.883746 13.625 30.875 z M 13.625 35.8125 C 18.374096 35.826244 22.248625 39.70005 22.25 44.5 C 22.248564 49.249096 18.374096 53.12325 13.625 53.125 C 8.8251745 53.123312 4.95092 49.249096 4.9375 44.5 C 4.9509196 39.70005 8.8251745 35.82625 13.625 35.8125 z "
       transform="matrix(0.8,0,0,-0.8,0,100)"
       id="path2997" /><path
       inkscape:connector-curvature="0"
       id="path3001"
       style="fill:#000000;fill-opacity:1;fill-rule:nonzero;stroke:none"
       d="m 45.831626,29.558173 c -8.308968,0.02479 -8.308968,-11.153145 0,-11.145531 l 48.080721,0 c 8.069763,-0.0076 8.069763,11.170321 0,11.145531 l -48.080721,0" /><path
       inkscape:connector-curvature="0"
       id="path3003"
       style="fill:#000000;fill-opacity:1;fill-rule:nonzero;stroke:none"
       d="m 55.777638,68.042742 4.248297,0 0,10.145932 -4.248297,0 0,-10.145932 z" /><path
       inkscape:connector-curvature="0"
       id="path3005"
       style="fill:#000000;fill-opacity:1;fill-rule:nonzero;stroke:none"
       d="m 49.280243,77.888794 17.343046,0 0,2.199118 -17.343046,0 0,-2.199118 z" /><path
       inkscape:connector-curvature="0"
       id="path3007"
       style="fill:#000000;fill-opacity:1;fill-rule:nonzero;stroke:none"
       d="m 68.122688,81.587311 27.738878,0 c 3.682523,0.01899 3.682523,-5.270387 0,-5.247896 l -27.738878,0 c -3.583563,-0.02249 -3.583563,5.266889 0,5.247896" /><path
       inkscape:connector-curvature="0"
       id="path3009"
       style="fill:#000000;fill-opacity:1;fill-rule:nonzero;stroke:none"
       d="m 20.041967,81.587311 27.438998,0 c 3.685022,0.01899 3.685022,-5.270387 0,-5.247896 l -27.438998,0 c -3.879495,-0.02249 -3.934923,5.266889 0,5.247896" /><path
       style="fill:#000000;fill-opacity:1;fill-rule:nonzero;stroke:none"
       d="M 14.0625 39.625 C 8.5908185 39.607507 7.4186871 46.724613 12.25 48.5625 L 51.78125 64.3125 L 55.21875 73.0625 C 55.987005 75.799465 58.215155 79.045637 62.65625 79.0625 L 116.40625 79.0625 C 122.59814 79.015644 126.754 74.000381 124.25 68.25 L 117.375 51.5 C 114.90724 45.359149 109.59492 39.607512 100.03125 39.625 L 14.0625 39.625 z M 75.15625 45 L 84.40625 45 L 84.40625 59.875 L 75.15625 59.875 L 75.15625 45 z M 89.90625 45 L 99.09375 45 L 99.09375 59.875 L 89.90625 59.875 L 89.90625 45 z M 104.71875 45.625 C 107.57948 46.308539 110.44639 48.874016 112.34375 53.125 L 115.28125 59.9375 L 104.71875 59.9375 L 104.71875 45.625 z "
       transform="matrix(0.8,0,0,-0.8,0,100)"
       id="path3011" /></g></svg>