<?xml version="1.0" encoding="UTF-8" standalone="no"?>
<svg
   xmlns:dc="http://purl.org/dc/elements/1.1/"
   xmlns:cc="http://creativecommons.org/ns#"
   xmlns:rdf="http://www.w3.org/1999/02/22-rdf-syntax-ns#"
   xmlns:svg="http://www.w3.org/2000/svg"
   xmlns="http://www.w3.org/2000/svg"
   xmlns:sodipodi="http://sodipodi.sourceforge.net/DTD/sodipodi-0.dtd"
   xmlns:inkscape="http://www.inkscape.org/namespaces/inkscape"
   width="125"
   height="125"
   id="svg2"
   version="1.1"
   inkscape:version="0.48.2 r9819"
   sodipodi:docname="running.svg">
  <defs
     id="defs15" />
  <sodipodi:namedview
     pagecolor="#ffffff"
     bordercolor="#666666"
     borderopacity="1"
     objecttolerance="10"
     gridtolerance="10"
     guidetolerance="10"
     inkscape:pageopacity="0"
     inkscape:pageshadow="2"
     inkscape:window-width="1210"
     inkscape:window-height="697"
     id="namedview13"
     showgrid="false"
     inkscape:zoom="3"
     inkscape:cx="114.95398"
     inkscape:cy="60.378819"
     inkscape:window-x="0"
     inkscape:window-y="0"
     inkscape:window-maximized="0"
     inkscape:current-layer="svg2" />
  <title
     id="title4">Running Icon on Transparent Background</title>
  <metadata
     id="metadata18081">image/svg+xmlPublic Domainclker.comMohamed Ibrahimmap symbolsmap symbolsimage/svg+xmlMap SymbolsMohamed IbrahimPublic DomainMap Symbols<rdf:RDF>
  <cc:Work
     rdf:about="">
    <dc:format>image/svg+xml</dc:format>
    <dc:type
       rdf:resource="http://purl.org/dc/dcmitype/StillImage" />
  </cc:Work>
</rdf:RDF>
</metadata>
  <g
     id="g7"
     transform="matrix(0.32680646,0,0,0.30941075,-58.579938,-80.752863)">
    <title
       id="title9">Layer 1</title>
    <path
       d="m 467.8472,344.24521 c 17.78433,0 32.20669,-14.4711 32.20669,-32.25543 0,-17.78434 -14.42236,-32.2067 -32.20669,-32.2067 -17.83307,0 -32.25543,14.42236 -32.25543,32.2067 0,17.78433 14.42236,32.25543 32.25543,32.25543"
       id="path8248"
       inkscape:connector-curvature="0"
       style="fill:#231f20;fill-rule:nonzero" />
    <path
       d="m 356.853,368.16901 -50.137,57.93298 c -2.97201,3.65402 -7.45501,5.896 -12.522,5.896 -8.96499,0 -16.22501,-7.25998 -16.22501,-16.17698 0,-4.872 2.09501,-9.20901 5.45701,-12.181 L 337.51001,341.371 c 2.97199,-3.557 7.45499,-5.84701 12.522,-5.84701 l 78.25098,-0.049 c 5.75,0 10.914,2.33899 14.715,5.99298 l 49.893,49.89401 41.36701,-41.26999 c 2.92401,-2.48502 6.67602,-3.94702 10.768,-3.94702 9.258,0 16.71301,7.504 16.71301,16.76202 0,4.04398 -1.36499,7.698 -3.75201,10.62198 L 508.142,423.763 c -15.15299,15.10501 -27.33398,2.29001 -27.33398,2.29001 l -30.599,-30.745 -47.79801,55.30198 43.80298,43.80301 c 0,0 9.25702,8.57601 3.94602,25.62899 L 425.603,629.52503 c -1.94901,9.50195 -10.32901,16.664 -20.366,16.664 -11.548,0 -20.854,-9.35505 -20.854,-20.85401 0,-1.85101 0.195,-3.60504 0.63299,-5.26202 l 20.22101,-89.79901 -49.797,-48.383 -42.828,47.75 c 0,0 -6.919,8.52704 -25.28799,7.89301 l -86.875,0.14599 c -9.696,0.14704 -18.515,-6.47998 -20.65901,-16.32202 -2.583,-11.20697 4.33601,-22.21896 15.591,-24.70297 1.755,-0.38999 3.509,-0.53601 5.214,-0.48801 L 275.289,496.362 385.74701,368.315 356.853,368.16901 z"
       id="path8256"
       inkscape:connector-curvature="0"
       style="fill:#231f20;fill-rule:nonzero" />
  </g>
</svg>
