<?xml version="1.0" encoding="UTF-8" standalone="no"?>
<svg
   xmlns:dc="http://purl.org/dc/elements/1.1/"
   xmlns:cc="http://creativecommons.org/ns#"
   xmlns:rdf="http://www.w3.org/1999/02/22-rdf-syntax-ns#"
   xmlns:svg="http://www.w3.org/2000/svg"
   xmlns="http://www.w3.org/2000/svg"
   xmlns:sodipodi="http://sodipodi.sourceforge.net/DTD/sodipodi-0.dtd"
   xmlns:inkscape="http://www.inkscape.org/namespaces/inkscape"
   width="300"
   height="520"
   id="svg2"
   version="1.1"
   inkscape:version="0.48.2 r9819"
   sodipodi:docname="Elephant#3.svg">
  <metadata
     id="metadata47">
    <rdf:RDF>
      <cc:Work
         rdf:about="">
        <dc:format>image/svg+xml</dc:format>
        <dc:type
           rdf:resource="http://purl.org/dc/dcmitype/StillImage" />
      </cc:Work>
    </rdf:RDF>
  </metadata>
  <defs
     id="defs45" />
  <sodipodi:namedview
     pagecolor="#ffffff"
     bordercolor="#666666"
     borderopacity="1"
     objecttolerance="10"
     gridtolerance="10"
     guidetolerance="10"
     inkscape:pageopacity="0"
     inkscape:pageshadow="2"
     inkscape:window-width="1004"
     inkscape:window-height="494"
     id="namedview43"
     showgrid="false"
     inkscape:zoom="1.0591379"
     inkscape:cx="16.406111"
     inkscape:cy="128.8194"
     inkscape:window-x="0"
     inkscape:window-y="0"
     inkscape:window-maximized="0"
     inkscape:current-layer="svg2" />
  <title
     id="title4">Elephant top view</title>
  <g
     id="g6"
     transform="translate(19.269847,90.55969)">
    <title
       id="title8">Layer 1</title>
    <ellipse
       rx="22"
       id="svg_33"
       cy="57.694538"
       cx="228.23204"
       ry="0"
       sodipodi:cx="228.23204"
       sodipodi:cy="57.694538"
       sodipodi:rx="22"
       sodipodi:ry="0"
       style="fill:none;stroke:#000000;stroke-width:4;stroke-linecap:round" />
    <g
       id="svg_3">
      <path
         transform="matrix(0.98243732,0.1865929,-0.1865929,0.98243732,72.616507,-17.129281)"
         id="svg_4"
         stroke-miterlimit="4"
         d="m 121.62691,375.63174 c 0.002,9.27015 -2.90512,26.76264 3.03719,18.6279 5.9423,-8.13473 9.62139,-8.34091 9.61979,-18.6279 0.002,-10.28701 3.97079,-17.45678 -7.73486,-17.61108 -11.70565,-0.1543 -4.9237,8.34091 -4.92212,17.61108 z"
         inkscape:connector-curvature="0"
         style="fill:#939dac;fill-rule:nonzero;stroke:#000000;stroke-linecap:round;stroke-linejoin:round;stroke-miterlimit:4" />
      <path
         transform="matrix(0.98243732,0.1865929,-0.1865929,0.98243732,77.719657,-13.016976)"
         stroke-linejoin="null"
         id="svg_28"
         d="m 111.53999,398.16995 c 0.27722,1.36835 -0.12586,1.83338 -1.099,2.956 -0.97313,1.12265 -1.7793,2.0527 -2.75244,3.17535 -0.97313,1.12265 -1.099,2.95602 -0.82178,4.32431 0.2772,1.36838 -1.37624,1.58771 -1.09902,2.95606 l 0.27721,1.36831 -1.65343,0.21933 0.27723,1.36835"
         inkscape:connector-curvature="0"
         style="fill:none;stroke:#000000;stroke-width:3;stroke-linecap:round;stroke-dasharray:none" />
      <path
         transform="matrix(0.98243732,0.1865929,-0.1865929,0.98243732,73.062094,-15.506132)"
         stroke-miterlimit="4"
         d="m 114.74056,399.44046 c 15.32826,-14.4227 5.37094,-38.17658 2.36844,-38.14624"
         id="svg_26"
         inkscape:connector-curvature="0"
         style="fill:none;stroke:#000000;stroke-width:4;stroke-linecap:round;stroke-miterlimit:4" />
      <path
         transform="matrix(0.98243732,0.1865929,-0.1865929,0.98243732,77.038186,-15.428676)"
         stroke-miterlimit="4"
         d="m 111.56669,401.52786 c 21.61321,-11.35412 17.51546,-39.87808 17.51546,-39.87808"
         id="svg_27"
         inkscape:connector-curvature="0"
         style="fill:none;stroke:#000000;stroke-width:4;stroke-linecap:round;stroke-miterlimit:4" />
      <path
         transform="matrix(0.98243732,0.1865929,-0.1865929,0.98243732,77.298538,-12.281312)"
         stroke-linejoin="null"
         d="m 110.8951,396.25699 c -0.37517,1.63122 -0.96749,2.03638 -2.39753,3.0144 -1.43003,0.97803 -2.61474,1.7883 -4.04478,2.76639 -1.43004,0.978 -2.39752,3.01437 -2.77268,4.6456 -0.37516,1.63123 -2.022426,1.38318 -2.397594,3.01443 l -0.375153,1.6312 -1.647202,-0.24802 -0.375168,1.63123"
         id="svg_31"
         inkscape:connector-curvature="0"
         style="fill:none;stroke:#000000;stroke-width:3;stroke-linecap:round;stroke-dasharray:none" />
      <path
         transform="matrix(0.98243732,0.1865929,-0.1865929,0.98243732,76.481722,-11.48045)"
         stroke-linejoin="null"
         d="m 108.00769,395.62415 c -0.78371,1.23309 -1.44965,1.41268 -3.05739,1.84613 -1.60776,0.43344 -2.9397,0.79257 -4.54745,1.22601 -1.60773,0.43344 -3.057376,1.84613 -3.841083,3.07919 -0.783707,1.23309 -2.273758,0.61301 -3.057465,1.8461 l -0.783691,1.23306 -1.489975,-0.62002 -0.783722,1.23309"
         id="svg_32"
         inkscape:connector-curvature="0"
         style="fill:none;stroke:#000000;stroke-width:3;stroke-linecap:round;stroke-dasharray:none" />
      <path
         transform="matrix(0.98243732,0.1865929,-0.1865929,0.98243732,77.854111,-14.292512)"
         id="svg_1"
         stroke-linejoin="null"
         d="m 112.93782,398.44858 c 1.03568,1.1047 0.94807,1.66827 0.73648,3.02878 -0.21156,1.36056 -0.38682,2.4877 -0.59839,3.84826 -0.21158,1.36054 0.7365,3.02878 1.77214,4.13349 1.03568,1.10467 -0.29922,1.92413 0.73645,3.02884 l 1.03566,1.10467 -1.33484,0.8194 1.48032,-1.92456"
         inkscape:connector-curvature="0"
         style="fill:none;stroke:#000000;stroke-width:3;stroke-linecap:round;stroke-dasharray:none" />
      <path
         transform="matrix(0.98243732,0.1865929,-0.1865929,0.98243732,75.44376,-12.148404)"
         id="svg_2"
         stroke-linejoin="null"
         d="m 112.93446,394.68625 c -1.49088,0.68362 -2.16948,0.53836 -3.80774,0.18768 -1.63829,-0.35074 -2.99555,-0.64123 -4.63384,-0.99194 -1.63826,-0.35071 -3.80772,0.18768 -5.298567,0.87128 -1.49086,0.68362 -2.316925,-0.49598 -3.8078,0.18762 l -1.490829,0.68362 -0.826035,-1.17956 -1.49086,0.68362"
         inkscape:connector-curvature="0"
         style="fill:none;stroke:#000000;stroke-width:3;stroke-linecap:round;stroke-dasharray:none" />
    </g>
    <path
       id="svg_68"
       stroke-miterlimit="4"
       d="m 273.73932,229.86121 c 0.0231,73.20968 -63.12788,132.56939 -141.03674,132.56939 -77.908879,0 -141.05995,-59.35971 -141.03674,-132.56939 -0.023211,-73.20966 63.127861,-132.569393 141.03674,-132.569393 77.90886,0 141.05984,59.359733 141.03674,132.569393 z"
       inkscape:connector-curvature="0"
       style="fill:#939dac;fill-rule:nonzero;stroke:#000000;stroke-width:4;stroke-linecap:round;stroke-linejoin:round;stroke-miterlimit:4" />
    <path
       id="svg_69"
       stroke-miterlimit="4"
       d="m 219.74609,92.861221 c 0.0142,47.806789 -38.73681,86.569399 -86.54351,86.569399 -47.806736,0 -86.557739,-38.76261 -86.543461,-86.569399 C 46.644841,45.05442 62.736512,6.29181 133.20258,6.29181 c 71.8797,0 86.55773,38.76261 86.54351,86.569411 z"
       inkscape:connector-curvature="0"
       style="fill:#939dac;fill-rule:nonzero;stroke:#000000;stroke-width:4;stroke-linecap:round;stroke-linejoin:round;stroke-miterlimit:4" />
    <path
       id="svg_70"
       transform="matrix(0.93110407,0.36475363,-0.36475363,0.93110407,36.503806,-3.5623821)"
       stroke-miterlimit="4"
       d="M -16.94244,96.366737 C -7.98975,125.3058 19.12067,144.16702 43.603821,138.48998 68.087013,132.81293 80.667542,104.74831 71.700257,75.812637 62.747533,46.873569 41.719361,47.655628 17.236211,53.332679 c -24.48319,5.677059 -43.145969,14.098373 -34.17865,43.034058 z"
       inkscape:connector-curvature="0"
       style="fill:#939dac;fill-rule:nonzero;stroke:#000000;stroke-width:4;stroke-linecap:round;stroke-linejoin:round;stroke-miterlimit:4" />
    <path
       id="svg_71"
       transform="matrix(0.91768358,-0.39731203,0.39731203,0.91768358,-17.347843,100.62805)"
       stroke-miterlimit="4"
       d="m 278.7984,93.668297 c -8.9527,28.384473 -36.06311,46.884243 -60.54626,41.315983 -24.48316,-5.56825 -37.06372,-33.09502 -28.09644,-61.476169 8.95276,-28.38446 29.9809,-27.61739 54.46405,-22.049141 24.48322,5.568272 43.14594,13.828194 34.17865,42.209328 z"
       inkscape:connector-curvature="0"
       style="fill:#939dac;fill-rule:nonzero;stroke:#000000;stroke-width:4;stroke-linecap:round;stroke-linejoin:round;stroke-miterlimit:4" />
    <path
       id="svg_72"
       transform="matrix(-0.81569442,-0.57848303,0.57848303,-0.81569442,327.52222,100.07149)"
       stroke-miterlimit="4"
       d="m 187.79034,-20.158079 c 6.51972,5.207529 6.05255,33.516659 2.18653,38.212809 -3.86603,4.696161 -26.85627,-23.58252 -22.92694,-32.28943 4.13403,-9.160239 14.60668,-10.82261 20.74041,-5.923379 z"
       inkscape:connector-curvature="0"
       style="fill:#ffffff;fill-rule:evenodd;stroke:#000000;stroke-width:4;stroke-linejoin:round;stroke-miterlimit:4" />
    <path
       id="svg_73"
       stroke-miterlimit="4"
       d="m 128.99927,50.69453 c 0.003,13.347317 -9.24866,24.169567 -20.66278,24.169567 -11.414142,0 -20.666179,-10.82225 -20.662776,-24.169567 -0.0034,-13.347301 9.248634,-24.1695 20.662776,-24.1695 11.41412,0 20.66616,10.822199 20.66278,24.1695 z"
       inkscape:connector-curvature="0"
       style="fill:#ffffff;fill-rule:nonzero;stroke:#000000;stroke-width:4;stroke-linecap:round;stroke-linejoin:round;stroke-miterlimit:4" />
    <path
       id="svg_74"
       stroke-miterlimit="4"
       d="m 210.74609,138.36122 c -0.0139,14.42621 -28.84161,63.0694 -75.54351,63.0694 -46.701939,0 -75.529549,-43.64319 -80.543461,-62.0694 -5.01392,-18.42621 34.841522,41.93059 81.543461,41.93059 46.7019,0 74.55743,-57.3568 74.54351,-42.93059 z"
       inkscape:connector-curvature="0"
       style="fill:#000000;fill-opacity:0.31372501;fill-rule:nonzero;stroke-width:4;stroke-linecap:round;stroke-linejoin:round;stroke-miterlimit:4" />
    <path
       id="svg_75"
       stroke-miterlimit="4"
       d="m 178.73144,50.69453 c 0.003,13.347317 -9.24859,24.169567 -20.66278,24.169567 -11.41412,0 -20.66616,-10.82225 -20.66278,-24.169567 -0.003,-13.347301 9.24866,-24.1695 20.66278,-24.1695 11.41419,0 20.66619,10.822199 20.66278,24.1695 z"
       inkscape:connector-curvature="0"
       style="fill:#ffffff;fill-rule:nonzero;stroke:#000000;stroke-width:4;stroke-linecap:round;stroke-linejoin:round;stroke-miterlimit:4" />
    <path
       id="svg_76"
       stroke-miterlimit="4"
       d="m 163.58679,42.19453 c 0.001,4.172981 -3.38128,7.556511 -7.55426,7.556511 -4.17303,0 -7.55548,-3.38353 -7.55426,-7.556511 -0.001,-4.172989 3.38123,-7.556499 7.55426,-7.556499 4.17298,0 7.55548,3.383511 7.55426,7.556499 z"
       inkscape:connector-curvature="0"
       style="fill:#000000;fill-rule:nonzero;stroke-width:47.66669083;stroke-linecap:round;stroke-linejoin:round;stroke-miterlimit:4" />
    <path
       id="svg_77"
       stroke-miterlimit="4"
       d="m 116.5564,41.19453 c 0.001,4.172981 -3.38123,7.556511 -7.5542,7.556511 -4.17301,0 -7.55554,-3.38353 -7.55426,-7.556511 -0.001,-4.172989 3.38125,-7.556499 7.55426,-7.556499 4.17297,0 7.55548,3.383511 7.5542,7.556499 z"
       inkscape:connector-curvature="0"
       style="fill:#000000;fill-rule:nonzero;stroke-width:47.66669083;stroke-linecap:round;stroke-linejoin:round;stroke-miterlimit:4" />
    <path
       id="svg_80"
       transform="matrix(-0.99909218,0.04260061,-0.04260061,-0.99909218,298.11973,-26.591862)"
       stroke-miterlimit="4"
       d="m 149.3432,-6.83113 c 14.5,-14.499999 31,-0.5 31,-0.5"
       inkscape:connector-curvature="0"
       style="fill:none;stroke:#000000;stroke-width:4;stroke-linecap:round;stroke-miterlimit:4" />
    <path
       id="svg_83"
       transform="matrix(-0.77487988,0.63210851,-0.63210851,-0.77487988,153.14657,-57.81945)"
       stroke-miterlimit="4"
       d="M 78.781471,-19.658079 C 72.261787,-14.45055 72.72895,13.85858 76.594948,18.55473 80.460983,23.250891 103.45124,-5.02779 99.521851,-13.7347 95.387917,-22.894939 84.915207,-24.55731 78.781472,-19.658079 z"
       inkscape:connector-curvature="0"
       style="fill:#ffffff;fill-rule:evenodd;stroke:#000000;stroke-width:4;stroke-linejoin:round;stroke-miterlimit:4" />
    <path
       id="svg_78"
       transform="matrix(-0.99994852,0.01014647,-0.01014647,-0.99994852,259.08632,-53.689234)"
       stroke-miterlimit="4"
       d="m 151.78711,12.81635 -48.3848,1.42198 c -25.601971,-43.448859 -2.59974,-78.906108 -3.964871,-79.627818 -1.365135,-0.721703 54.608181,-2.937325 54.566481,1.307121 -0.0417,4.244438 20.01416,36.460957 -2.21681,76.898717 z"
       inkscape:connector-curvature="0"
       style="fill:#939dac;fill-rule:evenodd;stroke-width:5;stroke-linecap:round;stroke-miterlimit:4" />
    <path
       id="svg_79"
       transform="matrix(-0.99999998,2.066613e-4,-2.066613e-4,-0.99999998,260.4774,-59.517497)"
       stroke-miterlimit="4"
       d="m 154.18994,-68.787918 c 0,0 23.5267,52.845658 -4.90532,76.750548 m -39.43249,1.334711 c -32.652003,-19.96097 -7.09864,-75.749924 -12.482562,-79.417694"
       inkscape:connector-curvature="0"
       style="fill:none;stroke:#000000;stroke-width:4;stroke-linecap:round;stroke-miterlimit:4" />
    <path
       id="svg_81"
       transform="matrix(-0.99771028,0.06763284,-0.06763284,-0.99771028,284.27136,-69.196312)"
       stroke-miterlimit="4"
       d="m 143.30701,-27.997789 c 9.85644,-7.88571 21.07245,-0.271921 21.07245,-0.271921"
       inkscape:connector-curvature="0"
       style="fill:none;stroke:#000000;stroke-width:4;stroke-linecap:round;stroke-miterlimit:4" />
    <path
       id="svg_82"
       transform="matrix(-0.99999354,-0.00359446,0.00359446,-0.99999354,283.4189,-90.396208)"
       stroke-miterlimit="4"
       d="m 141.62822,-44.164452 c 8.30865,-5.680958 17.76331,-0.195889 17.76331,-0.195889"
       inkscape:connector-curvature="0"
       style="fill:none;stroke:#000000;stroke-width:4;stroke-linecap:round;stroke-miterlimit:4" />
    <path
       id="svg_84"
       transform="matrix(-0.7416041,0.6708378,-0.6708378,-0.7416041,485.07239,23.089597)"
       stroke-miterlimit="4"
       d="m 244.98883,81.848213 c 8.22052,1.607155 17.73871,6.22683 24.16858,17.409828 6.42987,11.183019 2.4621,21.583539 -2.41913,29.622449 -3.66034,-13.79744 -20.05169,-30.890813 -44.28229,-31.734387 -9.82635,-0.342079 -22.16101,2.691238 -17.92492,-1.450821 4.23608,-4.142075 13.4292,-10.791901 24.34588,-13.123489 5.64087,-1.204765 7.89136,-2.330734 16.11188,-0.723579 z"
       inkscape:connector-curvature="0"
       style="fill:#000000;fill-opacity:0.31372501;fill-rule:nonzero;stroke-width:4;stroke-linecap:round;stroke-linejoin:round;stroke-miterlimit:4" />
    <path
       id="svg_85"
       transform="matrix(-0.80247987,-0.5966792,0.5966792,-0.80247987,-12.751423,215.59192)"
       stroke-miterlimit="4"
       d="M 24.08865,86.272438 C 14.027681,88.365387 8.51096,92.989807 1.38553,104.58052 -5.7399,116.17123 0.62131,126.92393 4.9227,135.30466 8.14825,120.92052 22.592529,103.1003 43.94492,102.22085 52.604031,101.8642 63.285279,106.36897 59.74057,100.70833 56.195862,95.047706 47.928501,85.926307 37.061069,85.058891 26.19363,84.191436 34.149631,84.179496 24.088649,86.272438 z"
       inkscape:connector-curvature="0"
       style="fill:#000000;fill-opacity:0.31372501;fill-rule:nonzero;stroke-width:4;stroke-linecap:round;stroke-linejoin:round;stroke-miterlimit:4" />
    <ellipse
       id="svg_88"
       ry="6.416667"
       rx="8.833333"
       cy="-69.055458"
       cx="140.20258"
       sodipodi:cx="140.20258"
       sodipodi:cy="-69.055458"
       sodipodi:rx="8.833333"
       sodipodi:ry="6.416667"
       style="fill:#939dac;stroke:#000000;stroke-width:3;stroke-linecap:round;stroke-linejoin:round"
       d="m 149.03591,-69.055458 c 0,3.543827 -3.95482,6.416667 -8.83333,6.416667 -4.87852,0 -8.83334,-2.87284 -8.83334,-6.416667 0,-3.543827 3.95482,-6.416667 8.83334,-6.416667 4.87851,0 8.83333,2.87284 8.83333,6.416667 z" />
    <ellipse
       id="svg_89"
       ry="6.083333"
       rx="8.999999"
       cy="-68.888794"
       cx="121.06538"
       sodipodi:cx="121.06538"
       sodipodi:cy="-68.888794"
       sodipodi:rx="8.999999"
       sodipodi:ry="6.083333"
       style="fill:#939dac;stroke:#000000;stroke-width:3;stroke-linecap:round;stroke-linejoin:round"
       d="m 130.06538,-68.888794 c 0,3.359732 -4.02944,6.083333 -9,6.083333 -4.97057,0 -9,-2.723601 -9,-6.083333 0,-3.359732 4.02943,-6.083333 9,-6.083333 4.97056,0 9,2.723601 9,6.083333 z" />
    <ellipse
       id="svg_90"
       ry="3.333334"
       rx="8.666667"
       cy="-66.138794"
       cx="121.73205"
       sodipodi:cx="121.73205"
       sodipodi:cy="-66.138794"
       sodipodi:rx="8.666667"
       sodipodi:ry="3.333334"
       style="fill:#000000;fill-opacity:0.31372501;stroke-width:0;stroke-linecap:round;stroke-linejoin:round"
       d="m 130.39872,-66.138794 c 0,1.84095 -3.8802,3.333334 -8.66667,3.333334 -4.78647,0 -8.66667,-1.492384 -8.66667,-3.333334 0,-1.840949 3.8802,-3.333334 8.66667,-3.333334 4.78647,0 8.66667,1.492385 8.66667,3.333334 z" />
    <ellipse
       id="svg_91"
       ry="2.666666"
       rx="8.8333273"
       cy="-66.47213"
       cx="139.20258"
       sodipodi:cx="139.20258"
       sodipodi:cy="-66.47213"
       sodipodi:rx="8.8333273"
       sodipodi:ry="2.666666"
       style="fill:#000000;fill-opacity:0.31372501;stroke-width:0;stroke-linecap:round;stroke-linejoin:round"
       d="m 148.0359,-66.47213 c 0,1.472759 -3.95481,2.666666 -8.83332,2.666666 -4.87852,0 -8.83333,-1.193907 -8.83333,-2.666666 0,-1.472759 3.95481,-2.666666 8.83333,-2.666666 4.87851,0 8.83332,1.193907 8.83332,2.666666 z" />
    <path
       transform="matrix(-0.99909218,0.04260061,-0.04260061,-0.99909218,297.36817,-30.575847)"
       stroke-miterlimit="4"
       d="m 149.00987,-8.83113 c 14.5,-14.500001 31,-0.5 31,-0.5"
       id="svg_22"
       inkscape:connector-curvature="0"
       style="fill:none;stroke:#000000;stroke-width:4;stroke-linecap:round;stroke-miterlimit:4" />
  </g>
</svg>
